<?xml version="1.0" encoding="utf-8"?>
<!-- Generator: Adobe Illustrator 27.2.0, SVG Export Plug-In . SVG Version: 6.00 Build 0)  -->
<svg version="1.1" id="Layer_1" xmlns="http://www.w3.org/2000/svg" xmlns:xlink="http://www.w3.org/1999/xlink" x="0px" y="0px"
	 viewBox="0 0 110 28.1" style="enable-background:new 0 0 110 28.1;" xml:space="preserve">
<style type="text/css">
	.st0{clip-path:url(#SVGID_00000139263191826664409550000007789435023738688443_);}
	.st1{opacity:0.35;}
	.st2{clip-path:url(#SVGID_00000096752470095567480510000016443424244523956630_);}
	.st3{clip-path:url(#SVGID_00000168081909150405369360000000302863349971670951_);}
	.st4{clip-path:url(#SVGID_00000137114470777553423290000002479832834522301851_);}
	.st5{opacity:0.4;enable-background:new    ;}
	.st6{fill:#FF3B30;}
	.st7{fill:none;stroke:#999999;stroke-width:3.1942;stroke-linecap:round;stroke-miterlimit:10;}
</style>
<g>
	<g>
		<g>
			<g>
				<g>
					<defs>
						<rect id="SVGID_1_" x="-19.2" y="-123" width="106" height="170"/>
					</defs>
					<clipPath id="SVGID_00000164504186557993892240000016900102508717404574_">
						<use xlink:href="#SVGID_1_"  style="overflow:visible;"/>
					</clipPath>
					<g style="clip-path:url(#SVGID_00000164504186557993892240000016900102508717404574_);">
						<g class="st1">
							<g>
								<g>
									<g>
										<g>
											<g>
												<defs>
													<rect id="SVGID_00000131335360710669371590000002997566489491138445_" x="1.8" y="0" width="54" height="28"/>
												</defs>
												<clipPath id="SVGID_00000036961115163312435530000015796748236964108949_">
													<use xlink:href="#SVGID_00000131335360710669371590000002997566489491138445_"  style="overflow:visible;"/>
												</clipPath>
												<g style="clip-path:url(#SVGID_00000036961115163312435530000015796748236964108949_);">
													<g>
														<g>
															<g>
																<g>
																	<g>
																		<defs>
																			<path id="SVGID_00000092429459663310918270000014899644790700334258_" d="M1.8,14c0-4.7,0-7,0.8-8.8
																				C3.5,3.3,5,1.7,7,0.8C8.8,0,11.1,0,15.8,0h25.9c4.7,0,7,0,8.8,0.8c1.9,0.9,3.5,2.4,4.3,4.4
																				c0.8,1.8,0.8,4.1,0.8,8.8s0,7-0.8,8.8c-0.9,1.9-2.4,3.5-4.3,4.4C48.7,28,46.4,28,41.7,28H15.8
																				c-4.7,0-7,0-8.8-0.8c-1.9-0.9-3.5-2.4-4.4-4.4C1.8,21,1.8,18.7,1.8,14z"/>
																		</defs>
																		<clipPath id="SVGID_00000068656422006295317940000014727657251750212771_">
																			<use xlink:href="#SVGID_00000092429459663310918270000014899644790700334258_"  style="overflow:visible;"/>
																		</clipPath>
																		<g style="clip-path:url(#SVGID_00000068656422006295317940000014727657251750212771_);">
																			<g>
																				<g>
																					<g>
																						<g>
																							<g>
																								<defs>
																									
																										<rect id="SVGID_00000080899053588892811550000002590036654717391011_" x="-19.2" y="-123" width="106" height="170"/>
																								</defs>
																								<clipPath id="SVGID_00000030450113076244469470000006341529715869195143_">
																									
																										<use xlink:href="#SVGID_00000080899053588892811550000002590036654717391011_"  style="overflow:visible;"/>
																								</clipPath>
																								<g style="clip-path:url(#SVGID_00000030450113076244469470000006341529715869195143_);">
																									<path d="M6.2-0.9C3.9,0.2,2,2.1,0.9,4.4l3.6,1.7c0.7-1.5,1.9-2.7,3.4-3.4L6.2-0.9L6.2-0.9z M3.8,14
																										c0-2.4,0-4,0.1-5.3c0.1-1.3,0.3-2,0.6-2.6L0.9,4.4C0.3,5.6,0.1,6.9,0,8.4s-0.1,3.3-0.1,5.6H3.8L3.8,14z
																										 M15.8-2c-2.3,0-4.1,0-5.6,0.1S7.4-1.5,6.2-1l1.7,3.6C8.5,2.3,9.3,2.1,10.5,2c1.3-0.1,3-0.1,5.3-0.1V-2z
																										 M49.6,2.7c1.5,0.7,2.7,1.9,3.4,3.4l3.6-1.7c-1.1-2.3-3-4.2-5.3-5.3L49.6,2.7L49.6,2.7z M57.6,14
																										c0-2.3,0-4.1-0.1-5.6s-0.3-2.8-0.9-4L53,6.1c0.3,0.6,0.5,1.4,0.6,2.6c0.1,1.3,0.1,3,0.1,5.3L57.6,14
																										L57.6,14z M41.6,2c2.4,0,4,0,5.3,0.1s2,0.3,2.6,0.6l1.7-3.6c-1.2-0.6-2.5-0.8-4-0.9s-3.3-0.1-5.6-0.1
																										C41.6-2,41.6,2,41.6,2z M53,22c-0.7,1.5-1.9,2.7-3.4,3.4l1.7,3.6c2.3-1.1,4.2-3,5.3-5.3L53,22L53,22z
																										 M41.6,30c2.3,0,4.1,0,5.6-0.1s2.8-0.4,4-0.9l-1.7-3.6c-0.6,0.3-1.4,0.5-2.6,0.6c-1.3,0.1-3,0.1-5.3,0.1
																										C41.6,26,41.6,30,41.6,30z M53.6,14c0,2.4,0,4-0.1,5.3s-0.3,2-0.6,2.6l3.6,1.7c0.6-1.2,0.8-2.5,0.9-4
																										s0.1-3.3,0.1-5.6H53.6L53.6,14z M7.8,25.4c-1.5-0.7-2.7-1.9-3.4-3.4l-3.6,1.7c1.1,2.3,3,4.2,5.3,5.3
																										L7.8,25.4L7.8,25.4z M-0.2,14c0,2.3,0,4.1,0.1,5.6s0.4,2.8,0.9,4l3.6-1.7c-0.3-0.6-0.5-1.4-0.6-2.6
																										c-0.1-1.3-0.1-3-0.1-5.3L-0.2,14L-0.2,14z M15.8,26c-2.4,0-4,0-5.3-0.1s-2-0.3-2.6-0.6l-1.7,3.6
																										c1.2,0.6,2.5,0.8,4,0.9s3.3,0.1,5.6,0.1V26z M41.7,26H15.8v4h25.8v-4H41.7z M15.8,2h25.8v-4H15.8V2z
																										 M54.8,5.2L53,6.1L54.8,5.2z M50.5,27.2l0.8,1.8L50.5,27.2z M54.8,22.9L53,22L54.8,22.9z M7,27.2L6.1,29
																										L7,27.2z"/>
																								</g>
																							</g>
																						</g>
																					</g>
																				</g>
																			</g>
																		</g>
																	</g>
																</g>
															</g>
														</g>
													</g>
												</g>
											</g>
										</g>
									</g>
								</g>
							</g>
						</g>
						<path class="st5" d="M57.8,10.4v8.8c1.7-0.7,2.9-2.5,2.9-4.4S59.5,11.1,57.8,10.4"/>
						<path class="st6" d="M5.8,10c0-3.3,2.7-6,6-6v20c-3.3,0-6-2.7-6-6V10z"/>
					</g>
				</g>
			</g>
		</g>
	</g>
</g>
<line class="st7" x1="97.9" y1="6" x2="105.9" y2="13.9"/>
<line class="st7" x1="97.7" y1="22" x2="105.9" y2="13.9"/>
</svg>
