<?xml version="1.0" encoding="utf-8"?>
<!-- Generator: Adobe Illustrator 27.2.0, SVG Export Plug-In . SVG Version: 6.00 Build 0)  -->
<svg version="1.1" id="Layer_1" xmlns="http://www.w3.org/2000/svg" xmlns:xlink="http://www.w3.org/1999/xlink" x="0px" y="0px"
	 viewBox="0 0 106.4 27.9" style="enable-background:new 0 0 106.4 27.9;" xml:space="preserve">
<style type="text/css">
	.st0{clip-path:url(#SVGID_00000179609354179407937130000016634227251133108395_);}
	.st1{opacity:0.35;}
	.st2{clip-path:url(#SVGID_00000143577398449222570960000012672377033349702577_);}
	.st3{clip-path:url(#SVGID_00000022528421646781521240000013826669992641654968_);}
	.st4{clip-path:url(#SVGID_00000043458210640800902150000009148797562759979650_);}
	.st5{opacity:0.4;enable-background:new    ;}
	.st6{fill:#FF9500;}
	.st7{fill:none;stroke:#999999;stroke-width:3.1942;stroke-linecap:round;stroke-miterlimit:10;}
</style>
<g>
	<g>
		<g>
			<g>
				<g>
					<defs>
						<rect id="SVGID_1_" x="-21" y="-88" width="106" height="170"/>
					</defs>
					<clipPath id="SVGID_00000085938243973507169370000001711352357033128876_">
						<use xlink:href="#SVGID_1_"  style="overflow:visible;"/>
					</clipPath>
					<g style="clip-path:url(#SVGID_00000085938243973507169370000001711352357033128876_);">
						<g class="st1">
							<g>
								<g>
									<g>
										<g>
											<g>
												<defs>
													<rect id="SVGID_00000059292035095604918640000015034415630777868949_" y="0" width="54" height="28"/>
												</defs>
												<clipPath id="SVGID_00000031203036424380148060000011668805753271932348_">
													<use xlink:href="#SVGID_00000059292035095604918640000015034415630777868949_"  style="overflow:visible;"/>
												</clipPath>
												<g style="clip-path:url(#SVGID_00000031203036424380148060000011668805753271932348_);">
													<g>
														<g>
															<g>
																<g>
																	<g>
																		<defs>
																			<path id="SVGID_00000127759458583097755900000003822511389536502918_" d="M0,14c0-4.7,0-7,0.8-8.8
																				c0.9-1.9,2.4-3.5,4.4-4.3C7,0.1,9.3,0.1,14,0.1h25.9c4.7,0,7,0,8.8,0.8c1.9,0.9,3.5,2.4,4.3,4.3
																				c0.8,1.8,0.8,4.1,0.8,8.8s0,7-0.8,8.8c-0.9,1.9-2.4,3.5-4.3,4.3c-1.8,0.8-4.1,0.8-8.8,0.8H14c-4.7,0-7,0-8.8-0.8
																				c-1.9-0.9-3.5-2.4-4.4-4.3C0,21,0,18.7,0,14z"/>
																		</defs>
																		<clipPath id="SVGID_00000020365950898044922970000015892646286519768994_">
																			<use xlink:href="#SVGID_00000127759458583097755900000003822511389536502918_"  style="overflow:visible;"/>
																		</clipPath>
																		<g style="clip-path:url(#SVGID_00000020365950898044922970000015892646286519768994_);">
																			<g>
																				<g>
																					<g>
																						<g>
																							<g>
																								<defs>
																									
																										<rect id="SVGID_00000085248133113550444900000010063797538713628038_" x="-21" y="-88" width="106" height="170"/>
																								</defs>
																								<clipPath id="SVGID_00000014604256916755433530000015131871961646399413_">
																									
																										<use xlink:href="#SVGID_00000085248133113550444900000010063797538713628038_"  style="overflow:visible;"/>
																								</clipPath>
																								<g style="clip-path:url(#SVGID_00000014604256916755433530000015131871961646399413_);">
																									<path d="M4.4-0.9c-2.3,1.1-4.2,3-5.3,5.3l3.6,1.7c0.7-1.5,1.9-2.7,3.4-3.4L4.4-0.9L4.4-0.9z M2,14.1
																										c0-2.4,0-4,0.1-5.3s0.3-2,0.6-2.6l-3.6-1.7c-0.6,1.2-0.8,2.5-0.9,4s-0.1,3.3-0.1,5.6
																										C-2,14.1,2,14.1,2,14.1z M14-1.9c-2.3,0-4.1,0-5.6,0.1s-2.8,0.3-4,0.9l1.7,3.6c0.6-0.3,1.4-0.5,2.6-0.6
																										C10,2,11.7,2,14,2V-1.9z M47.8,2.7c1.5,0.7,2.7,1.9,3.4,3.4l3.6-1.7c-1.1-2.3-3-4.2-5.3-5.3L47.8,2.7
																										L47.8,2.7z M55.8,14c0-2.3,0-4.1-0.1-5.6s-0.3-2.8-0.9-4l-3.6,1.7c0.3,0.6,0.5,1.4,0.6,2.6
																										c0.1,1.3,0.1,3,0.1,5.3C51.9,14,55.8,14,55.8,14z M39.8,2c2.4,0,4,0,5.3,0.1s2,0.3,2.6,0.6l1.7-3.6
																										c-1.2-0.6-2.5-0.8-4-0.9s-3.3-0.1-5.6-0.1C39.8-2,39.8,2,39.8,2z M51.2,22c-0.7,1.5-1.9,2.7-3.4,3.4
																										l1.7,3.6c2.3-1.1,4.2-3,5.3-5.3L51.2,22L51.2,22z M39.8,30c2.3,0,4.1,0,5.6-0.1s2.8-0.3,4-0.9l-1.7-3.6
																										c-0.6,0.3-1.4,0.5-2.6,0.6c-1.3,0.1-3,0.1-5.3,0.1C39.8,26,39.8,30,39.8,30z M51.8,14c0,2.4,0,4-0.1,5.3
																										s-0.3,2-0.6,2.6l3.6,1.7c0.6-1.2,0.8-2.5,0.9-4s0.1-3.3,0.1-5.6H51.8z M6,25.4c-1.5-0.7-2.7-1.9-3.4-3.4
																										L-1,23.7C0.1,26,2,27.9,4.3,29L6,25.4L6,25.4z M-2,14c0,2.3,0,4.1,0.1,5.6s0.4,2.8,0.9,4l3.6-1.7
																										c-0.3-0.6-0.5-1.4-0.6-2.6c-0.1-1.3-0.1-3-0.1-5.3C1.9,14-2,14-2,14z M14,26c-2.4,0-4,0-5.3-0.1
																										s-2-0.3-2.6-0.6l-1.7,3.6c1.2,0.6,2.5,0.8,4,0.9s3.3,0.1,5.6,0.1V26z M39.9,26H14v4h25.8L39.9,26L39.9,26z
																										 M14,2h25.8v-4H14V2z M53,5.2L51.2,6L53,5.2z M48.7,27.2l0.8,1.8L48.7,27.2z M53,22.9l-1.8-0.8L53,22.9z
																										 M5.2,27.2L4.3,29L5.2,27.2z"/>
																								</g>
																							</g>
																						</g>
																					</g>
																				</g>
																			</g>
																		</g>
																	</g>
																</g>
															</g>
														</g>
													</g>
												</g>
											</g>
										</g>
									</g>
								</g>
							</g>
						</g>
						<path class="st5" d="M56,10.4v8.8c1.7-0.7,2.9-2.5,2.9-4.4S57.7,11.1,56,10.4"/>
						<path class="st6" d="M4,13.7c0-3.4,0-5,0.6-6.3c0.6-1.1,1.5-2.1,2.6-2.6c1.3-0.7,3-0.7,6.3-0.7H22v20h-8.4c-3.4,0-5,0-6.3-0.7
							c-1.1-0.6-2-1.5-2.6-2.6c-0.6-1.3-0.6-3-0.6-6.3L4,13.7L4,13.7z"/>
					</g>
				</g>
			</g>
		</g>
	</g>
</g>
<line class="st7" x1="96.1" y1="6" x2="104.1" y2="13.9"/>
<line class="st7" x1="95.9" y1="22" x2="104.1" y2="13.9"/>
</svg>
