<?xml version="1.0" encoding="utf-8"?>
<!-- Generator: Adobe Illustrator 27.2.0, SVG Export Plug-In . SVG Version: 6.00 Build 0)  -->
<svg version="1.1" id="Layer_1" xmlns="http://www.w3.org/2000/svg" xmlns:xlink="http://www.w3.org/1999/xlink" x="0px" y="0px"
	 viewBox="0 0 109.9 27.4" style="enable-background:new 0 0 109.9 27.4;" xml:space="preserve">
<style type="text/css">
	.st0{clip-path:url(#SVGID_00000033357551146101983330000012406854405015021958_);}
	.st1{opacity:0.35;}
	.st2{clip-path:url(#SVGID_00000155865946793253491930000000033087247018088880_);}
	.st3{clip-path:url(#SVGID_00000078753253479887920770000005326352330679035780_);}
	.st4{clip-path:url(#SVGID_00000103242065438365615050000009402559848959232932_);}
	.st5{opacity:0.4;enable-background:new    ;}
	.st6{fill:#30D158;}
	.st7{fill:none;stroke:#999999;stroke-width:3.1942;stroke-linecap:round;stroke-miterlimit:10;}
</style>
<g>
	<g>
		<g>
			<g>
				<defs>
					<rect id="SVGID_1_" x="-21" y="-53.1" width="106" height="170"/>
				</defs>
				<clipPath id="SVGID_00000051376246433883674420000011519673370515544243_">
					<use xlink:href="#SVGID_1_"  style="overflow:visible;"/>
				</clipPath>
				<g style="clip-path:url(#SVGID_00000051376246433883674420000011519673370515544243_);">
					<g class="st1">
						<g>
							<g>
								<g>
									<g>
										<defs>
											<rect id="SVGID_00000176019377181040423410000017589308149838279084_" y="0" width="54" height="28"/>
										</defs>
										<clipPath id="SVGID_00000142153309700566438520000000340089361712065683_">
											<use xlink:href="#SVGID_00000176019377181040423410000017589308149838279084_"  style="overflow:visible;"/>
										</clipPath>
										<g style="clip-path:url(#SVGID_00000142153309700566438520000000340089361712065683_);">
											<g>
												<g>
													<g>
														<g>
															<defs>
																<path id="SVGID_00000158740152747899449320000002380192450637703060_" d="M0,13.9c0-4.7,0-7,0.8-8.8
																	c0.9-1.9,2.4-3.5,4.4-4.3C7,0,9.3,0,14,0h25.9c4.7,0,7,0,8.8,0.8c1.9,0.9,3.5,2.4,4.3,4.3c0.8,1.8,0.8,4.1,0.8,8.8
																	s0,7-0.8,8.8c-0.9,1.9-2.4,3.5-4.3,4.3c-1.8,0.8-4.1,0.8-8.8,0.8H14c-4.7,0-7,0-8.8-0.8c-1.9-0.9-3.5-2.4-4.4-4.3
																	C0,20.9,0,18.6,0,13.9z"/>
															</defs>
															<clipPath id="SVGID_00000114770463374688852480000003991411911583874476_">
																<use xlink:href="#SVGID_00000158740152747899449320000002380192450637703060_"  style="overflow:visible;"/>
															</clipPath>
															<g style="clip-path:url(#SVGID_00000114770463374688852480000003991411911583874476_);">
																<g>
																	<g>
																		<g>
																			<g>
																				<defs>
																					
																						<rect id="SVGID_00000070834848298827875960000017191945603368987582_" x="-21" y="-53.1" width="106" height="170"/>
																				</defs>
																				<clipPath id="SVGID_00000070113682226654474500000003882007842556451222_">
																					<use xlink:href="#SVGID_00000070834848298827875960000017191945603368987582_"  style="overflow:visible;"/>
																				</clipPath>
																				<g style="clip-path:url(#SVGID_00000070113682226654474500000003882007842556451222_);">
																					<path d="M4.4-1C2.1,0.1,0.2,2-0.9,4.3L2.7,6c0.7-1.5,1.9-2.7,3.4-3.4L4.4-1L4.4-1z M2,13.9c0-2.4,0-4,0.1-5.3
																						s0.3-2,0.6-2.6L-1,4.3c-0.6,1.2-0.8,2.5-0.9,4S-2,11.6-2,13.9H2z M14-2.1c-2.3,0-4.1,0-5.6,0.1s-2.8,0.3-4,0.9
																						l1.7,3.6C6.7,2.2,7.5,2,8.7,1.9c1.3-0.1,3-0.1,5.3-0.1C14,1.9,14-2.1,14-2.1z M47.8,2.6
																						c1.5,0.7,2.7,1.9,3.4,3.4l3.6-1.7c-1.1-2.3-3-4.2-5.3-5.3L47.8,2.6L47.8,2.6z M55.8,13.9c0-2.3,0-4.1-0.1-5.6
																						s-0.3-2.8-0.9-4L51.2,6c0.3,0.6,0.5,1.4,0.6,2.6c0.1,1.3,0.1,3,0.1,5.3C51.9,13.9,55.8,13.9,55.8,13.9z
																						 M39.8,1.9c2.4,0,4,0,5.3,0.1c1.3,0.1,2,0.3,2.6,0.6L49.4-1c-1.2-0.6-2.5-0.8-4-0.9S42.1-2,39.8-2
																						C39.8-2.1,39.8,1.9,39.8,1.9z M51.2,21.9c-0.7,1.5-1.9,2.7-3.4,3.4l1.7,3.6c2.3-1.1,4.2-3,5.3-5.3L51.2,21.9
																						L51.2,21.9z M39.8,29.9c2.3,0,4.1,0,5.6-0.1s2.8-0.3,4-0.9l-1.7-3.6c-0.6,0.3-1.4,0.5-2.6,0.6
																						c-1.3,0.1-3,0.1-5.3,0.1C39.8,25.9,39.8,29.9,39.8,29.9z M51.8,13.9c0,2.4,0,4-0.1,5.3s-0.3,2-0.6,2.6l3.6,1.7
																						c0.6-1.2,0.8-2.5,0.9-4s0.1-3.3,0.1-5.6C55.7,13.9,51.8,13.9,51.8,13.9z M6,25.3c-1.5-0.7-2.7-1.9-3.4-3.4
																						L-1,23.6c1.1,2.3,3,4.2,5.3,5.3L6,25.3L6,25.3z M-2,13.9c0,2.3,0,4.1,0.1,5.6s0.4,2.8,0.9,4l3.6-1.7
																						c-0.3-0.6-0.5-1.4-0.6-2.6c-0.1-1.3-0.1-3-0.1-5.3C1.9,13.9-2,13.9-2,13.9z M14,25.9c-2.4,0-4,0-5.3-0.1
																						s-2-0.3-2.6-0.6l-1.7,3.6c1.2,0.6,2.5,0.8,4,0.9s3.3,0.1,5.6,0.1V25.9z M39.9,25.9H14v4h25.8v-4H39.9z M14,1.9
																						h25.8v-4H14V1.9z M53,5.1l-1.8,0.8L53,5.1z M48.7,27.1l0.8,1.8L48.7,27.1z M53,22.8L51.2,22L53,22.8z
																						 M5.2,27.1l-0.9,1.8L5.2,27.1z"/>
																				</g>
																			</g>
																		</g>
																	</g>
																</g>
															</g>
														</g>
													</g>
												</g>
											</g>
										</g>
									</g>
								</g>
							</g>
						</g>
					</g>
					<path class="st5" d="M56,10.3v8.8c1.7-0.7,2.9-2.5,2.9-4.4S57.7,11,56,10.3"/>
					<path class="st6" d="M4,13.6c0-3.4,0-5,0.6-6.3c0.6-1.1,1.5-2.1,2.6-2.6C8.5,4,10.2,4,13.5,4H38v20H13.6c-3.4,0-5,0-6.3-0.7
						c-1.1-0.6-2-1.5-2.6-2.6c-0.6-1.3-0.6-3-0.6-6.3L4,13.6L4,13.6z"/>
				</g>
			</g>
		</g>
	</g>
</g>
<line class="st7" x1="96.1" y1="6" x2="104.1" y2="13.9"/>
<line class="st7" x1="95.9" y1="22" x2="104.1" y2="13.9"/>
</svg>
